<?xml version="1.0" encoding="UTF-8"?>
<svg xmlns="http://www.w3.org/2000/svg" viewBox="0 0 62.42 62.52" width="62.42" height="62.52">
  <defs>
    <style>
    .cls-106 { fill: #e21f26; }
    .cls-35 { fill: #fff; }
    .cls-9 { fill: none; stroke: #000; stroke-linecap: round; stroke-linejoin: round; stroke-width: .12px; }
    </style>
  </defs>
  <g transform="translate(-109.37 -555.59)">
    <polygon points="169.79 586.9 169.79 587.71 169.69 589.82 169.39 591.84 168.98 593.85 168.38 595.87 167.68 597.78 166.87 599.59 165.96 601.41 164.85 603.22 163.65 604.83 162.34 606.44 159.32 609.26 157.7 610.57 155.99 611.68 154.28 612.69 152.37 613.59 150.45 614.4 148.54 615 146.52 615.51 144.51 615.81 142.49 616.01 140.38 616.11 138.37 616.01 136.35 615.81 134.24 615.41 132.32 614.9 130.41 614.2 128.39 613.49 126.58 612.59 123.16 610.37 121.55 609.06 120.03 607.65 118.62 606.14 117.31 604.63 116.11 602.92 115 601.11 114.09 599.29 113.29 597.48 112.58 595.57 112.08 593.55 111.67 591.54 111.37 589.52 111.37 585.39 111.47 583.38 111.78 581.36 112.28 579.35 112.88 577.34 113.59 575.42 114.49 573.51 115.5 571.8 116.61 570.08 117.82 568.37 119.23 566.86 120.64 565.45 122.25 564.04 123.86 562.83 125.57 561.72 127.39 560.72 129.2 559.91 131.21 559.21 133.13 558.6 135.14 558.1 137.26 557.8 139.27 557.59 141.29 557.59 143.4 557.8 145.42 558 147.43 558.5 149.34 559 151.36 559.71 153.17 560.51 154.98 561.42 156.8 562.53 158.41 563.74 160.02 565.05 161.53 566.46 162.94 567.97 164.15 569.58 165.26 571.29 166.37 573.1 167.27 574.92 168.08 576.83 168.68 578.75 169.19 580.76 169.79 584.79 169.79 586.9" class="cls-106"/>
    <polygon points="164.96 586.9 164.85 588.01 164.75 589.93 164.45 591.74 164.05 593.55 163.45 595.36 161.83 598.79 160.83 600.4 159.72 601.91 158.51 603.32 157.2 604.63 155.79 605.84 154.28 606.95 152.77 607.95 151.06 608.86 149.34 609.67 145.72 610.67 143.91 610.98 141.99 611.18 140.18 611.18 138.26 611.08 136.35 610.87 134.54 610.47 132.73 609.87 131.01 609.26 129.3 608.46 127.69 607.55 124.67 605.34 123.26 604.03 121.95 602.62 120.84 601.21 119.83 599.59 118.93 597.98 118.02 596.27 117.42 594.56 116.91 592.75 116.51 590.93 116.21 589.02 116.21 585.29 116.41 583.38 117.21 579.75 117.82 578.04 119.43 574.62 120.44 573.1 121.55 571.59 124.16 568.77 125.57 567.67 127.19 566.56 128.7 565.55 130.41 564.75 132.12 564.04 133.93 563.44 135.75 562.93 137.56 562.63 139.47 562.53 141.29 562.53 143.2 562.63 145.01 562.93 146.83 563.34 148.64 563.94 150.45 564.64 152.16 565.45 153.68 566.36 155.29 567.36 156.7 568.67 158.11 569.88 159.32 571.29 161.53 574.31 163.14 577.74 163.75 579.45 164.35 581.26 164.65 583.18 164.85 584.99 164.96 586.9 164.96 586.9" class="cls-35"/>
    <polygon points="130.91 582.67 130.91 582.98 130.81 583.38 130.51 583.88 130.21 584.08 129.7 584.39 128.8 584.39 128.29 584.08 127.99 583.78 127.69 583.38 127.59 582.87 127.59 582.47 127.79 581.97 128.09 581.57 128.5 581.26 129 581.06 129.4 581.06 129.91 581.16 130.41 581.46 130.61 581.87 130.91 582.27 130.91 582.67"/>
    <polygon points="136.96 582.67 136.96 582.98 136.75 583.38 136.55 583.88 136.15 584.08 135.65 584.39 134.74 584.39 134.24 584.08 133.93 583.78 133.73 583.38 133.53 582.87 133.53 582.47 133.73 581.97 134.04 581.57 134.44 581.26 134.94 581.06 135.35 581.06 135.85 581.16 136.35 581.46 136.65 581.87 136.86 582.27 136.96 582.67"/>
    <polygon points="152.67 582.67 152.67 582.98 152.57 583.38 152.27 583.88 151.86 584.08 151.46 584.39 150.45 584.39 149.65 583.78 149.45 583.38 149.34 582.87 149.34 582.47 149.55 581.97 149.75 581.57 150.25 581.26 150.65 581.06 151.16 581.06 151.66 581.16 152.06 581.46 152.37 581.87 152.57 582.27 152.67 582.67"/>
    <polygon points="148.54 582.67 137.86 582.67 137.86 580.26 134.94 580.26 134.34 580.46 133.33 581.06 133.03 581.57 132.83 582.17 132.73 582.67 131.72 582.67 131.72 582.17 131.52 581.57 131.11 581.06 130.61 580.66 130.11 580.46 129.5 580.26 129 580.26 128.39 580.46 127.39 581.06 127.08 581.57 126.88 582.17 126.78 582.67 125.07 582.67 125.07 581.77 125.17 581.67 125.27 581.46 125.47 581.46 125.47 580.36 125.57 579.75 125.78 579.35 126.08 579.05 127.59 576.13 127.69 575.82 128.09 575.62 133.13 575.62 133.43 575.93 133.53 576.13 133.53 579.35 134.44 579.35 134.44 573.31 134.74 572.9 134.94 572.7 135.34 572.5 155.29 572.5 155.59 572.8 155.79 573.1 155.99 573.51 155.99 582.67 153.47 582.67 153.37 582.17 153.17 581.57 152.87 581.06 152.37 580.66 151.86 580.46 151.26 580.26 150.65 580.26 150.05 580.46 149.55 580.76 149.14 581.06 148.84 581.57 148.54 582.17 148.54 582.67"/>
    <polygon points="125.07 586.9 119.93 582.98 119.93 590.83 125.07 586.9"/>
    <polygon points="161.13 590.83 161.13 582.98 155.99 586.9 161.13 590.83"/>
    <polygon points="130.61 591.03 129.1 591.03 127.69 592.04 127.69 593.95 128.8 593.05 128.8 601.21 130.61 601.21 130.61 591.03"/>
    <polygon points="138.57 591.03 133.13 591.03 133.13 596.57 135.04 596.57 135.04 596.47 135.34 596.07 135.75 595.97 136.55 595.97 136.75 596.17 136.96 596.47 137.06 596.77 137.06 598.49 136.96 598.89 136.35 599.49 135.95 599.59 135.55 599.49 135.14 599.29 134.94 598.99 134.74 598.59 133.03 598.59 133.03 599.19 133.33 599.7 133.63 600.3 134.14 600.7 134.74 601 135.24 601.31 136.55 601.31 137.26 601 137.76 600.7 138.16 600.2 138.57 599.59 138.77 598.99 138.87 598.39 138.87 596.77 138.77 596.27 138.57 595.67 138.27 595.16 137.86 594.76 137.36 594.46 136.75 594.26 136.05 594.16 135.55 594.26 134.94 594.46 134.94 592.75 138.57 592.75 138.57 591.03"/>
    <polygon points="150.55 595.26 150.05 595.36 149.65 595.57 149.34 595.87 149.14 596.27 149.04 596.77 149.04 601.21 147.63 601.21 147.63 596.77 147.53 596.27 147.33 595.87 147.03 595.57 146.52 595.36 146.12 595.26 145.72 595.36 145.32 595.57 144.91 595.87 144.71 596.27 144.71 601.21 143.2 601.21 143.2 593.85 144.71 593.85 144.71 594.76 145.11 594.36 145.62 594.05 146.12 593.85 146.83 593.85 147.43 593.95 147.93 594.16 148.44 594.56 148.64 594.86 149.04 594.46 149.65 594.05 150.25 593.85 150.75 593.85 151.46 593.95 152.06 594.16 152.57 594.56 152.97 594.96 153.27 595.57 153.37 596.17 153.47 596.57 153.47 601.21 152.06 601.21 152.06 596.77 151.86 596.27 151.76 595.87 151.36 595.57 150.96 595.36 150.55 595.26"/>
    <polygon points="127.89 578.64 127.69 578.64 127.59 578.54 127.39 578.24 127.49 578.04 128.09 576.73 128.29 576.53 128.6 576.43 132.42 576.43 132.63 576.73 132.73 576.93 132.73 578.44 132.42 578.64 127.89 578.64" class="cls-35"/>
    <polyline points="169.78 586.9 169.78 587.71 169.68 589.82 169.38 591.84 168.98 593.85 168.37 595.87 167.67 597.78 166.86 599.59 165.96 601.4 164.85 603.22 163.64 604.83 162.33 606.44 159.31 609.26 157.7 610.57 155.99 611.67 154.28 612.68 152.36 613.59 150.45 614.39 148.54 615 146.52 615.5 144.51 615.8 142.49 616 140.38 616.11 138.37 616 136.35 615.8 134.24 615.4 132.32 614.9 130.41 614.19 128.4 613.49 126.58 612.58 123.16 610.37 121.55 609.06 120.04 607.65 118.63 606.14 117.32 604.63 116.11 602.91 115 601.1 114.1 599.29 113.29 597.48 112.59 595.56 112.08 593.55 111.68 591.54 111.38 589.52 111.38 585.39 111.48 583.38 111.78 581.37 112.29 579.35 112.89 577.34 113.6 575.42 114.5 573.51 115.51 571.8 116.62 570.09 117.82 568.38 119.23 566.87 120.64 565.46 122.25 564.05 123.87 562.84 125.58 561.73 127.39 560.72 129.2 559.92 131.22 559.21 133.13 558.61 135.14 558.1 137.26 557.8 139.27 557.6 141.29 557.6 143.4 557.8 145.41 558 147.43 558.51 149.34 559.01 151.36 559.72 153.17 560.52 154.98 561.43 156.79 562.54 158.4 563.74 160.02 565.05 161.53 566.46 162.94 567.97 164.14 569.58 165.25 571.3 166.36 573.11 167.27 574.92 168.07 576.83 168.68 578.75 169.18 580.76 169.78 584.79 169.78 586.9" class="cls-9"/>
  </g>
</svg>
