<?xml version="1.0" encoding="UTF-8"?>
<svg xmlns="http://www.w3.org/2000/svg" viewBox="0 0 53.51 53.51" width="53.51" height="53.51">
  <defs>
    <style>
    .cls-113 { fill: #009344; }
    .cls-35 { fill: none; stroke: #010101; stroke-linecap: round; stroke-linejoin: round; stroke-width: .07px; }
    </style>
  </defs>
  <g transform="translate(-366.85 -440.34)">
    <polygon points="417.9 467.07 393.64 491.39 369.32 467.07 393.64 442.81 417.9 467.07" class="cls-113"/>
    <polygon points="394.24 442.61 418.1 466.47 418.3 466.73 418.36 467.07 418.3 467.4 418.17 467.67 394.24 491.59 393.98 491.79 393.64 491.85 393.18 491.59 392.31 490.92 389.64 488.39 385.98 484.79 381.78 480.66 369.12 467.73 368.92 467.4 368.85 467.07 368.92 466.73 369.12 466.47 393.24 442.34 393.64 442.34 393.98 442.41 394.24 442.61" class="cls-35"/>
  </g>
</svg>
