<?xml version="1.0" encoding="UTF-8"?>
<svg xmlns="http://www.w3.org/2000/svg" viewBox="0 0 47.94 64.63" width="47.94" height="64.63">
  <defs>
    <style>
    .cls-23 { fill: #bcbdc0; }
    .cls-6 { fill: #010101; }
    .cls-18 { fill: #fff; }
    </style>
  </defs>
  <g transform="translate(-112.87 -531.29)">
    <rect x="114.87" y="533.29" width="43.94" height="60.63" class="cls-23"/>
    <polygon points="128.01 575.56 129.92 585.07 126.23 585.07 128.01 575.56" class="cls-6"/>
    <polygon points="144.79 543.25 146.58 552.75 148.37 543.25 144.79 543.25" class="cls-6"/>
    <polygon points="138.86 587.98 140.09 587.98 140.09 540.23 138.86 540.23 138.86 568.74 138.3 565.39 137.41 560.47 136.29 555.77 138.86 551.75 130.14 540.23 133.27 560.25 135.39 557 135.73 558.79 136.85 563.6 137.63 568.41 138.19 573.22 138.64 578.14 138.86 583.06 138.86 587.98" class="cls-18"/>
  </g>
</svg>
