<?xml version="1.0" encoding="UTF-8"?>
<svg xmlns="http://www.w3.org/2000/svg" viewBox="0 0 62.9 45.44" width="62.9" height="45.44">
  <defs>
    <style>
    .cls-45 { fill: #009344; }
    .cls-24 { fill: #fff; }
    </style>
  </defs>
  <g transform="translate(-361.81 -212.88)">
    <polygon points="367.03 255.52 365.88 253.8 364.62 250.01 364.62 241.4 364.39 238.99 364.04 236 363.81 233.02 363.81 231.75 364.04 230.72 364.39 228.65 364.39 224.06 364.27 221.77 364.5 219.7 364.73 218.78 365.07 217.86 365.65 217.17 366.45 216.48 367.37 215.91 368.63 215.57 370.47 215.45 372.42 215.45 374.49 215.57 376.44 215.57 380.34 214.88 384.25 214.88 388.96 215.34 393.2 216.25 393.89 215.91 394.81 215.68 397.45 215.57 402.16 215.57 404.23 215.22 406.18 214.88 410.08 214.88 413.99 215.57 416.4 215.91 418.12 216.48 419.61 217.75 421.33 220.04 422.14 222.91 422.48 224.29 422.71 225.9 422.48 233.25 422.14 237.72 422.02 241.86 421.68 245.99 421.33 248.17 420.76 250.35 419.27 252.54 417.89 254.37 417.2 255.18 416.28 255.75 415.25 256.09 413.99 256.32 410.08 256.32 408.13 255.98 406.18 255.52 402.85 255.41 399.52 255.41 392.86 255.52 392.4 255.29 390.33 255.86 388.15 256.32 384.25 256.32 382.3 255.98 380.34 255.52 377.13 255.41 373.69 255.41 367.03 255.52" class="cls-45"/>
    <polygon points="396.99 244.96 396.99 242.2 397.68 241.63 396.99 237.38 397.57 225.67 397.68 225.21 398.03 224.75 398.49 224.41 418.35 224.41 419.27 224.75 419.73 225.67 420.3 237.38 419.73 241.63 420.3 242.2 420.3 244.96 418.23 244.96 418.23 247.6 414.22 247.6 414.22 244.96 403.08 244.96 403.08 247.6 399.18 247.6 399.18 244.96 396.99 244.96" class="cls-24"/>
    <polygon points="400.32 239.68 400.32 239.33 399.75 238.87 399.4 238.76 399.18 238.87 398.6 239.33 398.6 239.68 398.83 240.37 399.4 240.59 400.09 240.25 400.32 239.68" class="cls-45"/>
    <polygon points="403.08 239.68 402.96 239.33 402.5 238.87 402.16 238.76 401.82 238.87 401.24 239.33 401.24 239.68 401.47 240.25 402.16 240.59 402.73 240.25 403.08 239.68" class="cls-45"/>
    <polygon points="416.97 239.68 417.2 239.22 417.55 238.87 417.89 238.76 418.46 239.1 418.81 239.68 418.46 240.37 417.89 240.59 417.2 240.37 416.97 239.68" class="cls-45"/>
    <polygon points="414.21 239.68 414.33 239.33 414.56 239.1 415.13 238.76 415.59 238.87 415.94 239.22 416.17 239.68 415.82 240.37 415.25 240.59 414.56 240.37 414.21 239.68" class="cls-45"/>
    <polygon points="408.7 224.98 403.08 224.98 403.08 227.62 414.22 227.62 414.22 224.98 408.7 224.98" class="cls-45"/>
    <polygon points="398.72 235.89 407.9 235.89 407.9 228.54 399.06 228.54 398.37 228.77 398.14 229.46 397.91 235.08 397.91 235.31 398.14 235.66 398.37 235.89 398.72 235.89" class="cls-45"/>
    <polygon points="418.35 228.54 418.58 228.66 418.92 228.77 419.15 229.11 419.15 229.46 419.38 235.08 419.38 235.31 419.15 235.66 418.92 235.89 409.39 235.89 409.39 228.54 418.35 228.54" class="cls-45"/>
    <polygon points="408.7 241.4 399.29 241.4 399.29 242.43 418 242.43 418 241.4 408.7 241.4" class="cls-45"/>
    <polygon points="387 245.07 387 226.93 394.24 236 387 245.07 387 245.07" class="cls-24"/>
    <polygon points="368.75 224.98 368.98 224.29 369.67 223.95 370.24 224.06 370.7 224.41 370.93 225.1 370.93 225.21 370.82 225.55 370.47 225.9 369.9 226.13 369.09 225.9 368.86 225.44 368.75 224.98" class="cls-24"/>
    <polygon points="377.93 224.98 378.16 224.29 378.85 223.95 379.77 224.29 380 224.64 380.12 225.1 379.89 225.67 379.43 226.01 378.97 226.13 378.51 225.9 378.05 225.55 377.93 224.98" class="cls-24"/>
    <polygon points="381.26 224.98 381.49 224.41 381.84 224.41 381.95 224.18 381.72 223.95 381.49 223.37 381.38 223.14 381.15 223.03 377.7 222.45 376.21 221.31 375.87 221.19 375.64 221.08 373.57 220.96 370.01 220.96 369.78 221.08 369.44 221.31 367.6 222.91 367.49 223.6 367.6 224.18 367.37 224.64 367.72 224.64 368.29 225.32 368.18 224.98 368.29 224.41 368.75 223.95 369.21 223.6 369.78 223.49 370.7 223.72 371.16 224.18 371.51 224.87 371.39 225.32 377.47 225.32 377.36 225.21 377.59 224.29 378.05 223.72 378.74 223.49 379.2 223.49 379.89 223.72 380.46 224.18 380.69 225.1 381.26 224.98 381.26 224.98" class="cls-24"/>
    <polygon points="372.77 221.42 372.65 221.19 370.82 221.19 370.36 221.42 369.55 222.22 369.67 222.45 370.01 222.68 372.65 222.68 372.88 222.45 372.77 221.42" class="cls-45"/>
    <polygon points="376.33 222.68 376.56 222.57 376.56 222.23 375.75 221.54 375.18 221.31 373.23 221.19 373 221.31 373 221.54 373.23 222.45 373.46 222.68 376.33 222.68" class="cls-45"/>
    <polygon points="368.75 237.5 368.98 236.81 369.67 236.35 370.24 236.58 370.7 236.92 370.93 237.61 370.93 237.72 370.82 238.07 370.47 238.41 369.9 238.64 369.09 238.41 368.86 237.95 368.75 237.5" class="cls-24"/>
    <polygon points="377.93 237.5 378.16 236.81 378.85 236.35 379.77 236.81 380 237.15 380.12 237.61 379.89 238.18 379.43 238.53 378.97 238.64 378.51 238.41 378.05 238.07 377.93 237.5" class="cls-24"/>
    <polygon points="381.26 237.5 381.49 236.92 381.84 236.92 381.95 236.69 381.72 236.46 381.49 235.89 381.38 235.66 381.15 235.54 377.7 234.97 376.21 233.82 375.87 233.71 375.64 233.59 373.57 233.48 370.01 233.48 369.78 233.59 369.44 233.82 367.6 235.43 367.49 236 367.6 236.69 367.37 237.15 367.72 237.15 368.29 237.84 368.18 237.5 368.29 236.92 368.75 236.46 369.21 236.12 369.78 235.89 370.7 236.12 371.16 236.69 371.51 237.38 371.39 237.84 377.47 237.84 377.36 237.72 377.59 236.81 378.05 236.23 378.74 235.89 379.2 235.89 379.89 236.23 380.46 236.69 380.69 237.61 381.26 237.5 381.26 237.5" class="cls-24"/>
    <polygon points="372.77 233.94 372.65 233.71 370.82 233.71 370.36 233.94 369.55 234.74 369.67 234.97 370.01 235.2 372.65 235.2 372.88 234.97 372.77 233.94" class="cls-45"/>
    <polygon points="376.33 235.2 376.56 235.08 376.56 234.74 375.75 234.05 375.18 233.82 373.23 233.71 373 233.82 373 234.05 373.23 234.97 373.46 235.2 376.33 235.2" class="cls-45"/>
    <polygon points="368.75 249.9 368.98 249.21 369.67 248.86 370.24 248.98 370.7 249.32 370.93 250.01 370.93 250.24 370.82 250.47 370.47 250.93 369.9 251.04 369.09 250.81 368.86 250.47 368.75 249.9" class="cls-24"/>
    <polygon points="377.93 249.9 378.16 249.21 378.85 248.86 379.77 249.21 380 249.55 380.12 250.01 379.89 250.58 379.43 251.04 378.97 251.04 378.51 250.93 378.05 250.58 377.93 249.9" class="cls-24"/>
    <polygon points="381.26 249.9 381.49 249.32 381.84 249.32 381.95 249.09 381.72 248.86 381.49 248.29 381.38 248.06 381.15 247.94 377.7 247.37 376.21 246.34 375.87 246.11 375.64 246.11 373.57 245.88 371.51 245.88 370.01 245.99 369.78 245.99 369.44 246.22 367.6 247.83 367.49 248.52 367.6 249.09 367.37 249.55 367.72 249.55 368.29 250.35 368.18 249.9 368.29 249.32 368.75 248.86 369.21 248.52 369.78 248.4 370.7 248.63 371.16 249.21 371.51 249.78 371.39 250.35 377.47 250.35 377.36 250.12 377.59 249.21 378.05 248.63 378.74 248.4 379.2 248.4 379.89 248.63 380.46 249.09 380.69 250.01 381.26 249.9 381.26 249.9" class="cls-24"/>
    <polygon points="372.77 246.34 372.65 246.22 372.42 246.11 370.82 246.22 370.59 246.22 370.36 246.45 369.67 247.02 369.55 247.25 369.67 247.48 370.01 247.6 372.77 247.6 372.88 247.37 372.77 246.34" class="cls-45"/>
    <polygon points="376.33 247.6 376.56 247.6 376.56 247.14 375.75 246.57 375.18 246.34 373.23 246.11 373 246.22 373 246.45 373.23 247.48 373.46 247.6 376.33 247.6" class="cls-45"/>
  </g>
</svg>
