<?xml version="1.0" encoding="UTF-8"?>
<svg xmlns="http://www.w3.org/2000/svg" viewBox="0 0 60.65 38.84" width="60.65" height="38.84">
  <defs>
    <style>
    .cls-34 { fill: #754521; }
    .cls-13 { fill: #fff; }
    </style>
  </defs>
  <g transform="translate(-365.32 -595.24)">
    <polygon points="375.39 631.39 370.09 628.85 367.43 623.55 367.43 616.97 367.32 610.51 367.43 606.7 367.55 605.2 367.78 604.17 368.47 601.28 368.7 600.24 369.28 599.32 370.2 598.63 371.59 598.17 373.66 597.94 376.66 597.94 379.89 598.05 383.24 597.94 386.47 597.24 389.82 597.24 393.74 597.82 397.31 598.51 397.89 598.17 398.7 597.94 400.89 597.82 404.93 597.94 408.16 597.24 411.39 597.24 413.12 597.59 414.73 597.94 417.04 598.17 419.12 598.51 420.04 598.86 420.85 599.44 421.77 600.13 422.58 601.28 423.39 604.51 423.73 606.24 423.97 607.74 423.62 609.47 423.27 611.09 423.16 615.13 423.39 619.39 423.27 623.55 422.58 627.47 422.23 628.51 421.89 629.43 421.31 630.12 420.5 630.7 419.58 631.28 418.31 631.62 414.73 632.08 411.39 632.08 408.16 631.39 405.39 631.28 402.62 631.28 396.97 631.39 396.62 631.28 394.89 631.74 393.05 632.08 389.82 632.08 388.2 631.74 386.47 631.39 383.82 631.28 380.93 631.28 375.39 631.39" class="cls-34"/>
    <polygon points="415.54 604.51 415.77 604.86 416 604.97 417.85 606.13 417.97 606.24 417.85 606.59 417.27 607.4 417.04 607.74 416 608.09 414.97 608.09 413.7 608.32 412.43 608.78 411.62 609.24 410.7 609.47 410.01 609.36 407.47 609.24 405.04 609.47 403.78 609.7 402.51 610.05 401.35 610.51 401.24 610.63 400.89 610.86 400.08 610.97 398.81 611.2 398.47 611.55 398.24 612.01 397.89 612.59 397.2 613.16 396.39 614.32 395.93 615.7 395.7 617.09 396.05 618.82 396.05 619.51 395.93 620.2 395.7 620.78 395.93 623.2 396.28 625.62 396.74 626.89 397.31 627.59 398.01 628.16 400.08 628.16 400.08 623.78 398.12 623.78 398.12 622.74 403.08 622.74 403.08 623.78 401.12 623.78 401.12 628.16 405.51 628.16 405.51 625.28 404.58 625.28 404.58 624.24 407.47 624.24 407.47 625.28 406.54 625.28 406.54 628.16 410.01 628.16 410.01 629.2 380.24 629.2 380.24 628.16 391.09 628.16 391.78 627.01 392.24 624.24 392.7 623.2 392.58 622.51 392.35 621.93 392.35 621.36 392.58 620.32 392.58 619.51 392.35 618.13 391.78 616.86 391.78 616.74 391.55 616.39 391.43 615.82 391.2 614.43 390.51 613.16 389.82 612.13 389.01 610.63 388.2 610.28 387.74 610.51 387.05 610.74 386.59 610.63 385.32 610.28 383.93 610.51 382.89 610.63 381.51 610.86 381.05 610.97 380.24 610.74 378.97 610.05 377.82 609.47 376.55 609.13 376.2 609.01 375.63 608.32 373.09 606.7 372.74 606.59 372.4 606.24 372.28 606.01 372.74 605.32 373.2 605.2 374.13 604.51 374.47 604.17 375.28 603.93 377.82 602.55 378.39 602.32 380.36 602.44 380.93 602.44 381.51 602.32 382.78 601.86 383.93 601.63 387.74 600.24 389.12 599.78 390.51 599.55 391.55 599.67 392.7 599.9 393.51 600.24 394.66 600.24 395.24 599.9 396.28 599.55 397.55 599.44 398.93 599.67 400.66 600.36 402.51 600.71 403.89 600.82 404.35 600.94 405.04 601.28 406.08 601.86 407.35 602.09 407.47 602.09 409.89 602.44 411.16 602.44 412.43 602.67 413.7 603.01 414.74 603.24 415.2 603.71 415.2 603.82 415.54 604.51" class="cls-13"/>
    <polygon points="392.35 613.17 392.7 614.43 393.39 615.59 393.16 613.05 393.16 612.59 393.62 611.9 393.74 611.55 393.62 611.32 393.62 611.09 393.28 610.4 393.51 609.7 393.74 609.59 393.85 609.47 393.85 609.24 392.7 609.36 391.43 609.13 390.74 609.24 389.93 609.47 390.05 609.59 390.39 609.59 390.97 609.93 391.2 610.17 391.66 612.01 392.35 613.17" class="cls-34"/>
    <polygon points="397.08 610.63 396.39 611.55 396.28 611.9 395.12 613.4 394.78 614.32 394.55 613.86 394.55 613.51 394.66 613.17 394.78 612.36 394.78 611.9 394.55 611.32 394.78 610.63 395.01 610.28 395.12 609.82 395.01 609.36 395.01 609.13 395.12 609.01 395.24 609.01 395.47 609.13 396.05 609.47 396.62 609.47 397.08 609.24 397.66 609.13 398.58 609.36 398.93 609.47 398.93 609.82 398.01 610.05 397.08 610.63" class="cls-34"/>
  </g>
</svg>
